<svg width="62" height="62" viewBox="0 0 62 62" fill="none" xmlns="http://www.w3.org/2000/svg">
<rect x="21.3572" y="19.083" width="19.2857" height="9.83398" fill="#FAFAFA" fill-opacity="0.12" stroke="#B2B2B2" stroke-width="1.28571"/>
<path d="M20.6535 45.86C20.4135 46.13 20.1335 46.37 19.7935 46.59C19.4535 46.79 19.1135 46.93 18.7935 47.02V47.84C19.4635 47.64 20.0235 47.32 20.4735 46.86V53H21.2935V45.86H20.6535ZM23.6872 51.81C23.5072 51.81 23.3672 51.87 23.2572 51.99C23.1372 52.11 23.0772 52.25 23.0772 52.43C23.0772 52.6 23.1372 52.74 23.2572 52.86C23.3672 52.98 23.5072 53.04 23.6872 53.04C23.8472 53.04 23.9972 52.98 24.1172 52.86C24.2372 52.74 24.2972 52.6 24.2972 52.43C24.2972 52.25 24.2372 52.11 24.1172 51.99C23.9972 51.87 23.8472 51.81 23.6872 51.81ZM28.0039 45.72C27.2539 45.72 26.6739 45.91 26.2539 46.3C25.8639 46.65 25.6739 47.09 25.6739 47.61C25.6739 47.99 25.7639 48.31 25.9439 48.57C26.1339 48.85 26.4139 49.06 26.7939 49.19V49.21C26.4139 49.3 26.1039 49.51 25.8439 49.83C25.5639 50.17 25.4239 50.57 25.4239 51.03C25.4239 51.66 25.6439 52.17 26.0839 52.55C26.5339 52.94 27.1739 53.14 28.0039 53.14C28.8239 53.14 29.4639 52.94 29.9239 52.55C30.3639 52.17 30.5839 51.66 30.5839 51.03C30.5839 50.57 30.4439 50.17 30.1639 49.83C29.9039 49.51 29.5839 49.3 29.2139 49.21V49.19C29.5839 49.06 29.8639 48.85 30.0639 48.57C30.2439 48.31 30.3339 47.99 30.3339 47.61C30.3339 47.09 30.1339 46.65 29.7539 46.3C29.3339 45.91 28.7439 45.72 28.0039 45.72ZM28.0039 46.39C28.5039 46.39 28.9039 46.52 29.1939 46.78C29.4339 47 29.5639 47.29 29.5639 47.64C29.5639 48 29.4539 48.3 29.2339 48.52C28.9639 48.78 28.5539 48.92 28.0039 48.92C27.4439 48.92 27.0339 48.78 26.7739 48.52C26.5539 48.3 26.4439 48 26.4439 47.64C26.4439 47.29 26.5639 47 26.8139 46.78C27.0939 46.52 27.4939 46.39 28.0039 46.39ZM28.0039 49.56C28.5739 49.56 29.0239 49.7 29.3439 49.99C29.6239 50.25 29.7739 50.6 29.7739 51.03C29.7739 51.45 29.6239 51.79 29.3439 52.05C29.0239 52.33 28.5839 52.47 28.0039 52.47C27.4239 52.47 26.9739 52.33 26.6739 52.06C26.3739 51.8 26.2339 51.45 26.2339 51.03C26.2339 50.6 26.3739 50.25 26.6739 49.99C26.9839 49.7 27.4239 49.56 28.0039 49.56ZM32.05 45.86L31.67 49.8H32.45C32.59 49.52 32.81 49.3 33.09 49.16C33.36 49.01 33.66 48.94 34 48.94C34.52 48.94 34.93 49.09 35.22 49.41C35.52 49.72 35.68 50.16 35.68 50.73C35.68 51.23 35.51 51.64 35.19 51.96C34.86 52.28 34.45 52.44 33.95 52.44C33.51 52.44 33.14 52.33 32.86 52.12C32.54 51.88 32.36 51.53 32.32 51.08H31.51C31.56 51.73 31.83 52.25 32.33 52.63C32.77 52.97 33.31 53.14 33.94 53.14C34.64 53.14 35.24 52.92 35.72 52.49C36.23 52.03 36.49 51.44 36.49 50.72C36.49 49.95 36.27 49.35 35.85 48.91C35.43 48.48 34.88 48.27 34.2 48.27C33.87 48.27 33.57 48.32 33.29 48.44C32.98 48.56 32.72 48.74 32.52 48.98H32.48L32.72 46.59H36.2V45.86H32.05ZM38.3161 48.13C38.1361 48.13 37.9961 48.19 37.8861 48.31C37.7661 48.43 37.7061 48.57 37.7061 48.74C37.7061 48.91 37.7661 49.06 37.8861 49.18C37.9961 49.29 38.1361 49.35 38.3161 49.35C38.4761 49.35 38.6261 49.29 38.7461 49.18C38.8661 49.06 38.9261 48.91 38.9261 48.74C38.9261 48.57 38.8661 48.43 38.7461 48.31C38.6261 48.19 38.4761 48.13 38.3161 48.13ZM38.3161 51.79C38.1361 51.79 37.9961 51.85 37.8861 51.97C37.7661 52.09 37.7061 52.23 37.7061 52.4C37.7061 52.57 37.7661 52.72 37.8861 52.84C37.9961 52.95 38.1361 53.01 38.3161 53.01C38.4761 53.01 38.6261 52.95 38.7461 52.84C38.8661 52.72 38.9261 52.57 38.9261 52.4C38.9261 52.23 38.8661 52.09 38.7461 51.97C38.6261 51.85 38.4761 51.79 38.3161 51.79ZM41.9328 45.86C41.6928 46.13 41.4128 46.37 41.0728 46.59C40.7328 46.79 40.3928 46.93 40.0728 47.02V47.84C40.7428 47.64 41.3028 47.32 41.7528 46.86V53H42.5728V45.86H41.9328Z" fill="#D4D4D4"/>
</svg>
