<svg width="62" height="62" viewBox="0 0 62 62" fill="none" xmlns="http://www.w3.org/2000/svg">
<rect x="21.3571" y="20.266" width="19.2857" height="7.46809" fill="#FAFAFA" fill-opacity="0.12" stroke="#B2B2B2" stroke-width="1.28571"/>
<path d="M20.5 49C20.5 46.5149 18.4851 44.5 16 44.5C13.5149 44.5 11.5 46.5149 11.5 49C11.5 51.4806 13.5075 53.4922 15.9859 53.4995V53.5H20.4859V52.375H18.9745C19.9094 51.5504 20.5 50.3444 20.5 49ZM17.5469 46.8063C17.9817 46.8063 18.3344 47.1589 18.3344 47.5938C18.3344 48.0286 17.9817 48.3813 17.5469 48.3813C17.112 48.3813 16.7594 48.0286 16.7594 47.5938C16.7594 47.1589 17.112 46.8063 17.5469 46.8063ZM17.5469 49.6188C17.9817 49.6188 18.3344 49.9715 18.3344 50.4063C18.3344 50.8411 17.9817 51.1938 17.5469 51.1938C17.112 51.1938 16.7594 50.8411 16.7594 50.4063C16.7594 49.9715 17.112 49.6188 17.5469 49.6188ZM14.4531 51.1938C14.0183 51.1938 13.6656 50.8411 13.6656 50.4063C13.6656 49.9715 14.0183 49.6188 14.4531 49.6188C14.8879 49.6188 15.2406 49.9715 15.2406 50.4063C15.2406 50.8411 14.8879 51.1938 14.4531 51.1938ZM14.4531 48.3813C14.0183 48.3813 13.6656 48.0286 13.6656 47.5938C13.6656 47.1589 14.0183 46.8063 14.4531 46.8063C14.8879 46.8063 15.2406 47.1589 15.2406 47.5938C15.2406 48.0286 14.8879 48.3813 14.4531 48.3813ZM15.7047 49.0844C15.7047 48.9874 15.7432 48.8944 15.8118 48.8259C15.8803 48.7573 15.9733 48.7188 16.0703 48.7188C16.1673 48.7188 16.2603 48.7573 16.3288 48.8259C16.3974 48.8944 16.4359 48.9874 16.4359 49.0844C16.4359 49.1814 16.3974 49.2744 16.3288 49.3429C16.2603 49.4115 16.1673 49.45 16.0703 49.45C15.9733 49.45 15.8803 49.4115 15.8118 49.3429C15.7432 49.2744 15.7047 49.1814 15.7047 49.0844Z" fill="#D9D9D9"/>
<path d="M27.4623 45.72C26.7423 45.72 26.1523 45.96 25.7123 46.44C25.2723 46.91 25.0423 47.55 25.0423 48.35H25.8623C25.8723 47.72 26.0223 47.24 26.3023 46.92C26.5623 46.58 26.9423 46.42 27.4323 46.42C27.8923 46.42 28.2623 46.54 28.5223 46.78C28.7823 47.02 28.9123 47.35 28.9123 47.79C28.9123 48.25 28.7223 48.68 28.3623 49.07C28.1723 49.27 27.8023 49.56 27.2423 49.96C26.4823 50.48 25.9723 50.91 25.6923 51.23C25.2123 51.76 24.9823 52.35 24.9823 53H29.7423V52.27H25.9923C26.1223 51.79 26.6423 51.24 27.5523 50.63C28.2923 50.13 28.7823 49.74 29.0323 49.48C29.4923 48.98 29.7323 48.42 29.7323 47.8C29.7323 47.18 29.5123 46.67 29.0923 46.29C28.6623 45.91 28.1223 45.72 27.4623 45.72ZM31.6784 51.81C31.4984 51.81 31.3584 51.87 31.2484 51.99C31.1284 52.11 31.0684 52.25 31.0684 52.43C31.0684 52.6 31.1284 52.74 31.2484 52.86C31.3584 52.98 31.4984 53.04 31.6784 53.04C31.8384 53.04 31.9884 52.98 32.1084 52.86C32.2284 52.74 32.2884 52.6 32.2884 52.43C32.2884 52.25 32.2284 52.11 32.1084 51.99C31.9884 51.87 31.8384 51.81 31.6784 51.81ZM36.0651 45.72C35.3851 45.72 34.8351 45.91 34.4151 46.3C33.9751 46.69 33.7151 47.23 33.6551 47.92H34.4651C34.5151 47.44 34.6751 47.07 34.9551 46.81C35.2251 46.55 35.5951 46.43 36.0751 46.43C36.5351 46.43 36.9051 46.54 37.1651 46.78C37.4051 47 37.5351 47.31 37.5351 47.71C37.5351 48.11 37.4051 48.42 37.1551 48.64C36.9051 48.85 36.5451 48.96 36.0651 48.96H35.5151V49.6H36.0951C36.5951 49.6 36.9751 49.71 37.2551 49.95C37.5351 50.19 37.6751 50.52 37.6751 50.95C37.6751 51.37 37.5251 51.72 37.2451 52C36.9351 52.29 36.5251 52.44 36.0151 52.44C35.5651 52.44 35.1951 52.31 34.8951 52.07C34.5451 51.78 34.3551 51.35 34.3351 50.79H33.5051C33.5651 51.59 33.8451 52.2 34.3551 52.62C34.7851 52.96 35.3351 53.14 36.0151 53.14C36.7551 53.14 37.3551 52.93 37.8151 52.51C38.2651 52.1 38.4951 51.57 38.4951 50.92C38.4951 50.5 38.3751 50.15 38.1351 49.87C37.9151 49.59 37.5951 49.39 37.1751 49.26C37.9551 49 38.3451 48.46 38.3451 47.66C38.3451 47.06 38.1351 46.59 37.7251 46.24C37.3051 45.89 36.7451 45.72 36.0651 45.72ZM40.0412 45.86L39.6612 49.8H40.4412C40.5812 49.52 40.8012 49.3 41.0812 49.16C41.3512 49.01 41.6512 48.94 41.9912 48.94C42.5112 48.94 42.9212 49.09 43.2112 49.41C43.5112 49.72 43.6712 50.16 43.6712 50.73C43.6712 51.23 43.5012 51.64 43.1812 51.96C42.8512 52.28 42.4412 52.44 41.9412 52.44C41.5012 52.44 41.1312 52.33 40.8512 52.12C40.5312 51.88 40.3512 51.53 40.3112 51.08H39.5012C39.5512 51.73 39.8212 52.25 40.3212 52.63C40.7612 52.97 41.3012 53.14 41.9312 53.14C42.6312 53.14 43.2312 52.92 43.7112 52.49C44.2212 52.03 44.4812 51.44 44.4812 50.72C44.4812 49.95 44.2612 49.35 43.8412 48.91C43.4212 48.48 42.8712 48.27 42.1912 48.27C41.8612 48.27 41.5612 48.32 41.2812 48.44C40.9712 48.56 40.7112 48.74 40.5112 48.98H40.4712L40.7112 46.59H44.1912V45.86H40.0412ZM46.3073 48.13C46.1273 48.13 45.9873 48.19 45.8773 48.31C45.7573 48.43 45.6973 48.57 45.6973 48.74C45.6973 48.91 45.7573 49.06 45.8773 49.18C45.9873 49.29 46.1273 49.35 46.3073 49.35C46.4673 49.35 46.6173 49.29 46.7373 49.18C46.8573 49.06 46.9173 48.91 46.9173 48.74C46.9173 48.57 46.8573 48.43 46.7373 48.31C46.6173 48.19 46.4673 48.13 46.3073 48.13ZM46.3073 51.79C46.1273 51.79 45.9873 51.85 45.8773 51.97C45.7573 52.09 45.6973 52.23 45.6973 52.4C45.6973 52.57 45.7573 52.72 45.8773 52.84C45.9873 52.95 46.1273 53.01 46.3073 53.01C46.4673 53.01 46.6173 52.95 46.7373 52.84C46.8573 52.72 46.9173 52.57 46.9173 52.4C46.9173 52.23 46.8573 52.09 46.7373 51.97C46.6173 51.85 46.4673 51.79 46.3073 51.79ZM49.924 45.86C49.684 46.13 49.404 46.37 49.064 46.59C48.724 46.79 48.384 46.93 48.064 47.02V47.84C48.734 47.64 49.294 47.32 49.744 46.86V53H50.564V45.86H49.924Z" fill="#D4D4D4"/>
</svg>
