<svg width="62" height="62" viewBox="0 0 62 62" fill="none" xmlns="http://www.w3.org/2000/svg">
<rect x="21.3571" y="19.5" width="19.2857" height="9" fill="#FAFAFA" fill-opacity="0.12" stroke="#B2B2B2" stroke-width="1.28571"/>
<path d="M27.7768 45.72C27.0568 45.72 26.4668 45.96 26.0268 46.44C25.5868 46.91 25.3568 47.55 25.3568 48.35H26.1768C26.1868 47.72 26.3368 47.24 26.6168 46.92C26.8768 46.58 27.2568 46.42 27.7468 46.42C28.2068 46.42 28.5768 46.54 28.8368 46.78C29.0968 47.02 29.2268 47.35 29.2268 47.79C29.2268 48.25 29.0368 48.68 28.6768 49.07C28.4868 49.27 28.1168 49.56 27.5568 49.96C26.7968 50.48 26.2868 50.91 26.0068 51.23C25.5268 51.76 25.2968 52.35 25.2968 53H30.0568V52.27H26.3068C26.4368 51.79 26.9568 51.24 27.8668 50.63C28.6068 50.13 29.0968 49.74 29.3468 49.48C29.8068 48.98 30.0468 48.42 30.0468 47.8C30.0468 47.18 29.8268 46.67 29.4068 46.29C28.9768 45.91 28.4368 45.72 27.7768 45.72ZM31.9929 48.13C31.8129 48.13 31.6729 48.19 31.5629 48.31C31.4429 48.43 31.3829 48.57 31.3829 48.74C31.3829 48.91 31.4429 49.06 31.5629 49.18C31.6729 49.29 31.8129 49.35 31.9929 49.35C32.1529 49.35 32.3029 49.29 32.4229 49.18C32.5429 49.06 32.6029 48.91 32.6029 48.74C32.6029 48.57 32.5429 48.43 32.4229 48.31C32.3029 48.19 32.1529 48.13 31.9929 48.13ZM31.9929 51.79C31.8129 51.79 31.6729 51.85 31.5629 51.97C31.4429 52.09 31.3829 52.23 31.3829 52.4C31.3829 52.57 31.4429 52.72 31.5629 52.84C31.6729 52.95 31.8129 53.01 31.9929 53.01C32.1529 53.01 32.3029 52.95 32.4229 52.84C32.5429 52.72 32.6029 52.57 32.6029 52.4C32.6029 52.23 32.5429 52.09 32.4229 51.97C32.3029 51.85 32.1529 51.79 31.9929 51.79ZM35.6096 45.86C35.3696 46.13 35.0896 46.37 34.7496 46.59C34.4096 46.79 34.0696 46.93 33.7496 47.02V47.84C34.4196 47.64 34.9796 47.32 35.4296 46.86V53H36.2496V45.86H35.6096Z" fill="#D4D4D4"/>
</svg>
