<svg width="62" height="62" viewBox="0 0 62 62" fill="none" xmlns="http://www.w3.org/2000/svg">
<rect x="21.3571" y="14.3571" width="19.2857" height="19.2857" fill="#FAFAFA" fill-opacity="0.12" stroke="#B2B2B2" stroke-width="1.28571"/>
<path d="M27.968 45.86C27.728 46.13 27.448 46.37 27.108 46.59C26.768 46.79 26.428 46.93 26.108 47.02V47.84C26.778 47.64 27.338 47.32 27.788 46.86V53H28.608V45.86H27.968ZM31.0016 48.13C30.8216 48.13 30.6816 48.19 30.5716 48.31C30.4516 48.43 30.3916 48.57 30.3916 48.74C30.3916 48.91 30.4516 49.06 30.5716 49.18C30.6816 49.29 30.8216 49.35 31.0016 49.35C31.1616 49.35 31.3116 49.29 31.4316 49.18C31.5516 49.06 31.6116 48.91 31.6116 48.74C31.6116 48.57 31.5516 48.43 31.4316 48.31C31.3116 48.19 31.1616 48.13 31.0016 48.13ZM31.0016 51.79C30.8216 51.79 30.6816 51.85 30.5716 51.97C30.4516 52.09 30.3916 52.23 30.3916 52.4C30.3916 52.57 30.4516 52.72 30.5716 52.84C30.6816 52.95 30.8216 53.01 31.0016 53.01C31.1616 53.01 31.3116 52.95 31.4316 52.84C31.5516 52.72 31.6116 52.57 31.6116 52.4C31.6116 52.23 31.5516 52.09 31.4316 51.97C31.3116 51.85 31.1616 51.79 31.0016 51.79ZM34.6184 45.86C34.3784 46.13 34.0984 46.37 33.7584 46.59C33.4184 46.79 33.0784 46.93 32.7584 47.02V47.84C33.4284 47.64 33.9884 47.32 34.4384 46.86V53H35.2584V45.86H34.6184Z" fill="#D4D4D4"/>
</svg>
