<svg width="62" height="62" viewBox="0 0 62 62" fill="none" xmlns="http://www.w3.org/2000/svg">
<rect x="21.3571" y="19.5" width="19.2857" height="9" fill="#FAFAFA" fill-opacity="0.12" stroke="#B2B2B2" stroke-width="1.28571"/>
<path opacity="0.8" fill-rule="evenodd" clip-rule="evenodd" d="M18.8167 49.0001C18.8167 46.4962 20.9164 44.4666 23.5064 44.4666C26.0966 44.4666 28.1962 46.4962 28.1962 49.0001C28.1962 51.5039 26.0966 53.5336 23.5064 53.5336C23.499 53.5336 23.406 53.5317 23.3525 53.5306C23.3327 53.5302 23.3184 53.5299 23.3157 53.5299C22.7511 53.5162 22.2842 53.1224 22.1785 52.6034L22.1779 52.6023C21.9687 51.4188 20.9962 50.4871 19.7677 50.297L19.7664 50.2967C19.2563 50.1938 18.8667 49.7747 18.8248 49.2614L18.8257 49.2832C18.8198 49.1895 18.8167 49.0952 18.8167 49.0001ZM25.2919 49.3265C24.7738 49.8438 24.1087 50.2221 23.3618 50.398C23.0045 50.4822 22.6247 50.2758 22.523 49.9337C22.4212 49.5914 22.3667 49.2299 22.3667 48.856C22.3667 48.4844 22.4206 48.1251 22.5211 47.7848C22.6238 47.4365 22.9963 47.2341 23.3597 47.3195C24.1074 47.4953 24.7733 47.8738 25.2918 48.3915C25.5473 48.6466 25.5473 49.0714 25.2919 49.3265Z" fill="white"/>
<path d="M34.7768 45.72C34.0568 45.72 33.4668 45.96 33.0268 46.44C32.5868 46.91 32.3568 47.55 32.3568 48.35H33.1768C33.1868 47.72 33.3368 47.24 33.6168 46.92C33.8768 46.58 34.2568 46.42 34.7468 46.42C35.2068 46.42 35.5768 46.54 35.8368 46.78C36.0968 47.02 36.2268 47.35 36.2268 47.79C36.2268 48.25 36.0368 48.68 35.6768 49.07C35.4868 49.27 35.1168 49.56 34.5568 49.96C33.7968 50.48 33.2868 50.91 33.0068 51.23C32.5268 51.76 32.2968 52.35 32.2968 53H37.0568V52.27H33.3068C33.4368 51.79 33.9568 51.24 34.8668 50.63C35.6068 50.13 36.0968 49.74 36.3468 49.48C36.8068 48.98 37.0468 48.42 37.0468 47.8C37.0468 47.18 36.8268 46.67 36.4068 46.29C35.9768 45.91 35.4368 45.72 34.7768 45.72ZM38.9929 48.13C38.8129 48.13 38.6729 48.19 38.5629 48.31C38.4429 48.43 38.3829 48.57 38.3829 48.74C38.3829 48.91 38.4429 49.06 38.5629 49.18C38.6729 49.29 38.8129 49.35 38.9929 49.35C39.1529 49.35 39.3029 49.29 39.4229 49.18C39.5429 49.06 39.6029 48.91 39.6029 48.74C39.6029 48.57 39.5429 48.43 39.4229 48.31C39.3029 48.19 39.1529 48.13 38.9929 48.13ZM38.9929 51.79C38.8129 51.79 38.6729 51.85 38.5629 51.97C38.4429 52.09 38.3829 52.23 38.3829 52.4C38.3829 52.57 38.4429 52.72 38.5629 52.84C38.6729 52.95 38.8129 53.01 38.9929 53.01C39.1529 53.01 39.3029 52.95 39.4229 52.84C39.5429 52.72 39.6029 52.57 39.6029 52.4C39.6029 52.23 39.5429 52.09 39.4229 51.97C39.3029 51.85 39.1529 51.79 38.9929 51.79ZM42.6096 45.86C42.3696 46.13 42.0896 46.37 41.7496 46.59C41.4096 46.79 41.0696 46.93 40.7496 47.02V47.84C41.4196 47.64 41.9796 47.32 42.4296 46.86V53H43.2496V45.86H42.6096Z" fill="#D4D4D4"/>
</svg>
