<svg width="62" height="62" viewBox="0 0 62 62" fill="none" xmlns="http://www.w3.org/2000/svg">
<rect x="21.3571" y="16.9286" width="19.2857" height="14.1429" fill="#FAFAFA" fill-opacity="0.12" stroke="#B2B2B2" stroke-width="1.28571"/>
<path d="M27.5255 45.86L23.9255 50.6V51.38H27.5155V53H28.2955V51.38H29.4555V50.71H28.2955V45.86H27.5255ZM27.4855 46.93H27.5155V50.71H24.6155L27.4855 46.93ZM31.0016 48.13C30.8216 48.13 30.6816 48.19 30.5716 48.31C30.4516 48.43 30.3916 48.57 30.3916 48.74C30.3916 48.91 30.4516 49.06 30.5716 49.18C30.6816 49.29 30.8216 49.35 31.0016 49.35C31.1616 49.35 31.3116 49.29 31.4316 49.18C31.5516 49.06 31.6116 48.91 31.6116 48.74C31.6116 48.57 31.5516 48.43 31.4316 48.31C31.3116 48.19 31.1616 48.13 31.0016 48.13ZM31.0016 51.79C30.8216 51.79 30.6816 51.85 30.5716 51.97C30.4516 52.09 30.3916 52.23 30.3916 52.4C30.3916 52.57 30.4516 52.72 30.5716 52.84C30.6816 52.95 30.8216 53.01 31.0016 53.01C31.1616 53.01 31.3116 52.95 31.4316 52.84C31.5516 52.72 31.6116 52.57 31.6116 52.4C31.6116 52.23 31.5516 52.09 31.4316 51.97C31.3116 51.85 31.1616 51.79 31.0016 51.79ZM35.3884 45.72C34.7084 45.72 34.1584 45.91 33.7384 46.3C33.2984 46.69 33.0384 47.23 32.9784 47.92H33.7884C33.8384 47.44 33.9984 47.07 34.2784 46.81C34.5484 46.55 34.9184 46.43 35.3984 46.43C35.8584 46.43 36.2284 46.54 36.4884 46.78C36.7284 47 36.8584 47.31 36.8584 47.71C36.8584 48.11 36.7284 48.42 36.4784 48.64C36.2284 48.85 35.8684 48.96 35.3884 48.96H34.8384V49.6H35.4184C35.9184 49.6 36.2984 49.71 36.5784 49.95C36.8584 50.19 36.9984 50.52 36.9984 50.95C36.9984 51.37 36.8484 51.72 36.5684 52C36.2584 52.29 35.8484 52.44 35.3384 52.44C34.8884 52.44 34.5184 52.31 34.2184 52.07C33.8684 51.78 33.6784 51.35 33.6584 50.79H32.8284C32.8884 51.59 33.1684 52.2 33.6784 52.62C34.1084 52.96 34.6584 53.14 35.3384 53.14C36.0784 53.14 36.6784 52.93 37.1384 52.51C37.5884 52.1 37.8184 51.57 37.8184 50.92C37.8184 50.5 37.6984 50.15 37.4584 49.87C37.2384 49.59 36.9184 49.39 36.4984 49.26C37.2784 49 37.6684 48.46 37.6684 47.66C37.6684 47.06 37.4584 46.59 37.0484 46.24C36.6284 45.89 36.0684 45.72 35.3884 45.72Z" fill="#D4D4D4"/>
</svg>
