<svg width="62" height="62" viewBox="0 0 62 62" fill="none" xmlns="http://www.w3.org/2000/svg">
<rect x="35.5" y="14.3571" width="19.2857" height="9" transform="rotate(90 35.5 14.3571)" fill="#FAFAFA" fill-opacity="0.12" stroke="#B2B2B2" stroke-width="1.28571"/>
<path d="M22.6018 45.86L22.2218 49.8H23.0018C23.1418 49.52 23.3618 49.3 23.6418 49.16C23.9118 49.01 24.2118 48.94 24.5518 48.94C25.0718 48.94 25.4818 49.09 25.7718 49.41C26.0718 49.72 26.2318 50.16 26.2318 50.73C26.2318 51.23 26.0618 51.64 25.7418 51.96C25.4118 52.28 25.0018 52.44 24.5018 52.44C24.0618 52.44 23.6918 52.33 23.4118 52.12C23.0918 51.88 22.9118 51.53 22.8718 51.08H22.0618C22.1118 51.73 22.3818 52.25 22.8818 52.63C23.3218 52.97 23.8618 53.14 24.4918 53.14C25.1918 53.14 25.7918 52.92 26.2718 52.49C26.7818 52.03 27.0418 51.44 27.0418 50.72C27.0418 49.95 26.8218 49.35 26.4018 48.91C25.9818 48.48 25.4318 48.27 24.7518 48.27C24.4218 48.27 24.1218 48.32 23.8418 48.44C23.5318 48.56 23.2718 48.74 23.0718 48.98H23.0318L23.2718 46.59H26.7518V45.86H22.6018ZM28.8679 51.81C28.6879 51.81 28.5479 51.87 28.4379 51.99C28.3179 52.11 28.2579 52.25 28.2579 52.43C28.2579 52.6 28.3179 52.74 28.4379 52.86C28.5479 52.98 28.6879 53.04 28.8679 53.04C29.0279 53.04 29.1779 52.98 29.2979 52.86C29.4179 52.74 29.4779 52.6 29.4779 52.43C29.4779 52.25 29.4179 52.11 29.2979 51.99C29.1779 51.87 29.0279 51.81 28.8679 51.81ZM33.1846 45.72C32.4346 45.72 31.8546 45.91 31.4346 46.3C31.0446 46.65 30.8546 47.09 30.8546 47.61C30.8546 47.99 30.9446 48.31 31.1246 48.57C31.3146 48.85 31.5946 49.06 31.9746 49.19V49.21C31.5946 49.3 31.2846 49.51 31.0246 49.83C30.7446 50.17 30.6046 50.57 30.6046 51.03C30.6046 51.66 30.8246 52.17 31.2646 52.55C31.7146 52.94 32.3546 53.14 33.1846 53.14C34.0046 53.14 34.6446 52.94 35.1046 52.55C35.5446 52.17 35.7646 51.66 35.7646 51.03C35.7646 50.57 35.6246 50.17 35.3446 49.83C35.0846 49.51 34.7646 49.3 34.3946 49.21V49.19C34.7646 49.06 35.0446 48.85 35.2446 48.57C35.4246 48.31 35.5146 47.99 35.5146 47.61C35.5146 47.09 35.3146 46.65 34.9346 46.3C34.5146 45.91 33.9246 45.72 33.1846 45.72ZM33.1846 46.39C33.6846 46.39 34.0846 46.52 34.3746 46.78C34.6146 47 34.7446 47.29 34.7446 47.64C34.7446 48 34.6346 48.3 34.4146 48.52C34.1446 48.78 33.7346 48.92 33.1846 48.92C32.6246 48.92 32.2146 48.78 31.9546 48.52C31.7346 48.3 31.6246 48 31.6246 47.64C31.6246 47.29 31.7446 47 31.9946 46.78C32.2746 46.52 32.6746 46.39 33.1846 46.39ZM33.1846 49.56C33.7546 49.56 34.2046 49.7 34.5246 49.99C34.8046 50.25 34.9546 50.6 34.9546 51.03C34.9546 51.45 34.8046 51.79 34.5246 52.05C34.2046 52.33 33.7646 52.47 33.1846 52.47C32.6046 52.47 32.1546 52.33 31.8546 52.06C31.5546 51.8 31.4146 51.45 31.4146 51.03C31.4146 50.6 31.5546 50.25 31.8546 49.99C32.1646 49.7 32.6046 49.56 33.1846 49.56ZM38.8107 45.86L38.9007 48.35H39.5507L39.6507 45.86H38.8107ZM36.9807 45.86L37.0807 48.35H37.7307L37.8207 45.86H36.9807Z" fill="#D4D4D4"/>
</svg>
